The Reason
Audio
Format                           : FLAC
Format/Info                      : Free Lossless Audio Codec
Duration                         : 4mn 16s
Bit rate mode                    : Variable
Bit rate                         : 1 055 Kbps
Channel(s)                       : 2 channels
Sampling rate                    : 44.1 KHz
Bit depth                        : 16 bits
Stream size                      : 32.3 MiB (100%)

Scary Bolly Dub
Audio
Format                           : FLAC
Format/Info                      : Free Lossless Audio Codec
Duration                         : 3mn 39s
Bit rate mode                    : Variable
Bit rate                         : 1 134 Kbps
Channel(s)                       : 2 channels
Sampling rate                    : 44.1 KHz
Bit depth                        : 16 bits
Stream size                      : 29.7 MiB (100%)

Leaving
Audio
Format                           : FLAC
Format/Info                      : Free Lossless Audio Codec
Duration                         : 4mn 46s
Bit rate mode                    : Variable
Bit rate                         : 848 Kbps
Channel(s)                       : 2 channels
Sampling rate                    : 44.1 KHz
Bit depth                        : 16 bits
Stream size                      : 29.0 MiB (100%)

My Old Account Eestiasi2

What IS Flac http://en.wikipedia.org/wiki/Flac

No Image :(	